<?xml version="1.0" encoding="utf-8"?>
<!-- Generator: Adobe Illustrator 26.3.1, SVG Export Plug-In . SVG Version: 6.00 Build 0)  -->
<svg version="1.1" id="Calque_1" xmlns="http://www.w3.org/2000/svg" xmlns:xlink="http://www.w3.org/1999/xlink" x="0px" y="0px"
	 viewBox="0 0 512 512" style="enable-background:new 0 0 512 512;" xml:space="preserve">
<style type="text/css">
	.st0{fill:#FFFFFF;stroke:#000000;stroke-width:4;stroke-linejoin:round;stroke-miterlimit:10;}
	.st1{stroke:#000000;stroke-width:4;stroke-linejoin:round;stroke-miterlimit:10;}
</style>
<g>
	<polygon class="st0" points="329,15.4 99.6,15.4 99.7,496.6 412.4,496.6 412.4,93.7 	"/>
	<path class="st1" d="M413.9,498.1H98.2L98.1,13.9h231.4L413.9,93V498.1z M101.2,495.1h309.7V94.3l-82.5-77.4H101.1L101.2,495.1z"/>
</g>
<g>
	<path d="M195.7,309.8c-3.1-0.6-6.2-1.1-9.2-1.9c-6.7-1.9-12.5-5.2-16.7-10.9c-6.3-8.6-6.3-17.7-1.8-27c5.4-11,14.7-17.9,25.8-22.3
		c10.5-4.2,21.3-5.4,32.4-2.6c0.2,0.1,0.5,0,1,0.1c-0.3-0.9-0.6-1.7-0.9-2.5c-14.9-38.5-29.9-77-44.9-115.5
		c-1.9-4.9,0.5-8.4,3.5-9.5c3.5-1.3,7,0.3,8.5,4c2,5,4,10.1,5.9,15.2c0.5,1.4,1.3,2.2,2.6,2.9c14.9,7.1,30,14,44.7,21.5
		c12.2,6.3,21.6,15.6,27.4,28.2c2.7,5.9,3.6,12.2,1.5,18.7c-15.9-21-36.6-33.4-62.3-37.2c-0.1,0.2-0.3,0.4-0.4,0.5
		c2.1,5.4,4.1,10.7,6.2,16.1c9.4,24.3,18.9,48.6,28.3,73c3.2,8.3,2.4,16.5-2,24.2c-5.8,10.3-14.7,17-25.6,21
		c-4.7,1.7-9.8,2.4-14.7,3.6c-0.4,0.1-0.8,0.2-1.3,0.3C201.2,309.8,198.4,309.8,195.7,309.8z"/>
</g>
<g>
	<path d="M253.7,358.9c-1.7-1.5-3.6-2.9-5.2-4.5c-3.6-3.6-6.2-7.8-6.8-13c-1-7.8,2.3-13.7,8.5-18c7.4-5.2,15.8-6.3,24.6-5.2
		c8.2,1.1,15.6,4.2,21.8,9.9c0.1,0.1,0.3,0.2,0.6,0.4c0.1-0.7,0.2-1.3,0.3-1.9c4.1-30.1,8.3-60.2,12.4-90.3c0.5-3.8,3.3-5.2,5.7-4.9
		c2.7,0.4,4.4,2.7,4,5.6c-0.5,4-1,7.9-1.6,11.9c-0.2,1.1,0,1.9,0.7,2.8c7.1,9.9,14.3,19.7,21,29.8c5.6,8.4,8.3,17.8,7.5,27.9
		c-0.4,4.8-2,9.1-5.7,12.6c-2.7-19.1-11.6-34.5-26.8-46.2c-0.2,0.1-0.3,0.1-0.5,0.2c-0.6,4.2-1.2,8.4-1.7,12.6
		c-2.6,19-5.2,38-7.8,57.1c-0.9,6.5-4.4,11.5-9.9,14.9c-7.4,4.6-15.5,5.7-24,4.4c-3.6-0.6-7.2-1.9-10.8-2.9
		c-0.3-0.1-0.6-0.2-0.9-0.2C257.2,360.9,255.4,359.9,253.7,358.9z"/>
</g>
</svg>
